<svg width="33" height="22" viewBox="0 0 33 22" fill="none" xmlns="http://www.w3.org/2000/svg">
<path d="M9.43244 0.946533C10.3561 0.946533 11.2087 1.01758 11.9902 1.23073C12.7718 1.37283 13.4112 1.65702 13.9796 2.01227C14.548 2.36752 14.9743 2.86486 15.2585 3.5043C15.5427 4.14375 15.6848 4.92529 15.6848 5.77788C15.6848 6.77256 15.4716 7.62516 14.9743 8.2646C14.548 8.90404 13.8375 9.47243 12.9849 9.89873C14.1927 10.254 15.1164 10.8934 15.6848 11.746C16.2532 12.5986 16.6084 13.6643 16.6084 14.8722C16.6084 15.8669 16.3953 16.7194 16.04 17.4299C15.6848 18.1404 15.1164 18.7799 14.4769 19.2062C13.8375 19.6325 13.0559 19.9877 12.2034 20.2009C11.3508 20.414 10.4982 20.5561 9.64559 20.5561H0.125V0.946533H9.43244ZM8.86405 8.90404C9.64559 8.90404 10.285 8.69089 10.7824 8.33565C11.2797 7.9804 11.4929 7.34096 11.4929 6.55942C11.4929 6.13312 11.4218 5.70683 11.2797 5.42263C11.1376 5.13843 10.9245 4.92529 10.6403 4.71214C10.3561 4.57004 10.0719 4.42794 9.71664 4.35689C9.36139 4.28584 9.00615 4.28584 8.57985 4.28584H4.459V8.90404H8.86405ZM9.0772 17.2878C9.50349 17.2878 9.92979 17.2168 10.285 17.1457C10.6403 17.0747 10.9955 16.9326 11.2797 16.7194C11.5639 16.5063 11.7771 16.2932 11.9902 15.9379C12.1323 15.5827 12.2744 15.1564 12.2744 14.659C12.2744 13.6643 11.9902 12.9538 11.4218 12.4565C10.8534 12.0302 10.0719 11.8171 9.14824 11.8171H4.459V17.2878H9.0772ZM22.7897 17.2168C23.3581 17.7852 24.2107 18.0694 25.3475 18.0694C26.129 18.0694 26.8395 17.8562 27.4079 17.501C27.9763 17.0747 28.3315 16.6484 28.4736 16.2221H31.955C31.3866 17.9273 30.534 19.1351 29.3973 19.9167C28.2605 20.6272 26.9105 21.0534 25.2764 21.0534C24.1396 21.0534 23.1449 20.8403 22.2213 20.4851C21.2977 20.1298 20.5872 19.6325 19.9477 18.922C19.3083 18.2825 18.8109 17.501 18.5267 16.5774C18.1715 15.6537 18.0294 14.659 18.0294 13.5222C18.0294 12.4565 18.1715 11.4618 18.5267 10.5382C18.882 9.61453 19.3793 8.83299 20.0188 8.1225C20.6582 7.48306 21.4398 6.91466 22.2923 6.55942C23.216 6.20417 24.1396 5.99102 25.2764 5.99102C26.4842 5.99102 27.55 6.20417 28.4736 6.70152C29.3973 7.19886 30.1077 7.76725 30.6761 8.61984C31.2445 9.40138 31.6708 10.325 31.955 11.3197C32.0971 12.3144 32.1682 13.3091 32.0971 14.4459H21.795C21.795 15.5827 22.2213 16.6484 22.7897 17.2168ZM27.2658 9.75663C26.7684 9.25929 25.9869 8.97509 25.0633 8.97509C24.4238 8.97509 23.9265 9.11719 23.5002 9.33034C23.0739 9.54348 22.7897 9.82768 22.5055 10.1119C22.2213 10.3961 22.0792 10.7513 22.0081 11.1066C21.9371 11.4618 21.866 11.746 21.866 12.0302H28.2605C28.1184 10.9645 27.7631 10.254 27.2658 9.75663ZM21.0135 2.29647H28.971V4.21479H21.0135V2.29647Z" fill="white"/>
</svg>
