<svg width="32" height="32" viewBox="0 0 32 32" fill="none" xmlns="http://www.w3.org/2000/svg">
<path d="M16 31.9813C7.175 31.9813 0 24.8188 0 16.0063C0 7.1813 7.175 0.0187988 16 0.0187988C24.825 0.0187988 32 7.1813 32 15.9938C32 24.8063 24.825 31.9813 16 31.9813ZM29.4875 18.1813C29.025 18.0313 25.2625 16.9188 20.975 17.5938C22.7625 22.4938 23.4875 26.4938 23.625 27.3188C26.7 25.2563 28.8875 21.9813 29.4875 18.1813ZM21.3375 28.5813C21.1375 27.3813 20.3375 23.2063 18.425 18.2313C18.4 18.2438 18.3625 18.2563 18.3375 18.2563C10.625 20.9438 7.8625 26.2813 7.6125 26.7813C9.925 28.5813 12.8375 29.6563 16 29.6563C17.8875 29.6688 19.7 29.2813 21.3375 28.5813ZM5.85 25.1438C6.1625 24.6188 9.9125 18.4188 16.9625 16.1313C17.1375 16.0688 17.325 16.0188 17.5 15.9688C17.1625 15.1938 16.7875 14.4188 16.3875 13.6563C9.5625 15.6938 2.9375 15.6063 2.3375 15.5938C2.3375 15.7313 2.325 15.8688 2.325 16.0063C2.3375 19.5188 3.6625 22.7188 5.85 25.1438ZM2.625 13.2188C3.2375 13.2313 8.8625 13.2563 15.2625 11.5563C13 7.5313 10.55 4.1563 10.2 3.6688C6.3625 5.4688 3.5125 8.9938 2.625 13.2188ZM12.8 2.7438C13.175 3.2438 15.6625 6.6188 17.9 10.7313C22.7625 8.9063 24.8125 6.1563 25.0625 5.8063C22.65 3.6688 19.475 2.3688 16 2.3688C14.9 2.3688 13.825 2.5063 12.8 2.7438ZM26.575 7.3813C26.2875 7.7688 24 10.7063 18.95 12.7688C19.2625 13.4188 19.575 14.0813 19.8625 14.7438C19.9625 14.9813 20.0625 15.2188 20.1625 15.4438C24.7125 14.8688 29.225 15.7938 29.675 15.8813C29.6375 12.6688 28.4875 9.7063 26.575 7.3813Z" fill="white"/>
</svg>
