<svg width="39" height="28" viewBox="0 0 39 28" fill="none" xmlns="http://www.w3.org/2000/svg">
<path fill-rule="evenodd" clip-rule="evenodd" d="M0 8C0 3.58172 3.58172 0 8 0H31C35.4183 0 39 3.58172 39 8L39 9.31341C36.4282 9.31341 34.3433 11.3983 34.3433 13.9701C34.3433 16.542 36.4282 18.6268 39 18.6268L39 19.9403C39 24.3586 35.4183 27.9403 31 27.9403H8C3.58172 27.9403 0 24.3586 0 19.9403V18.4801C0.372091 18.5759 0.76218 18.6268 1.16417 18.6268C3.736 18.6268 5.82088 16.542 5.82088 13.9701C5.82088 11.3983 3.736 9.31341 1.16417 9.31341C0.76218 9.31341 0.372091 9.36434 0 9.46011V8Z" fill="white"/>
<path d="M19.5 4.07458L21.6563 10.7111L28.6344 10.7111L22.989 14.8127L25.1454 21.4492L19.5 17.3476L13.8546 21.4492L16.011 14.8127L10.3656 10.7111L17.3436 10.7111L19.5 4.07458Z" fill="#F1401C"/>
</svg>
