<svg width="33" height="31" viewBox="0 0 33 31" fill="none" xmlns="http://www.w3.org/2000/svg">
<path d="M29.3684 6.52632H22.8421V3.26316C22.8421 1.45211 21.39 0 19.5789 0H13.0526C11.2416 0 9.78947 1.45211 9.78947 3.26316V6.52632H3.26316C1.45211 6.52632 0.0163158 7.97842 0.0163158 9.78947L0 27.7368C0 29.5479 1.45211 31 3.26316 31H29.3684C31.1795 31 32.6316 29.5479 32.6316 27.7368V9.78947C32.6316 7.97842 31.1795 6.52632 29.3684 6.52632ZM19.5789 6.52632H13.0526V3.26316H19.5789V6.52632Z" fill="white"/>
<path d="M12.92 22.3712L8.44704 18.0231L6.52637 19.8902L12.92 26.1053L26.1053 13.2881L24.1846 11.4211L12.92 22.3712Z" fill="#00C6F9"/>
</svg>
