<svg width="34" height="34" viewBox="0 0 34 34" fill="none" xmlns="http://www.w3.org/2000/svg">
<path d="M17 0C7.6262 0 0 7.6262 0 17C0 26.3738 7.6262 34 17 34C26.3738 34 34 26.3738 34 17C34 7.6262 26.3738 0 17 0ZM3.4 17C3.4 15.4717 3.6652 14.0046 4.1327 12.6327L6.8 15.3L10.2 18.7V22.1L13.6 25.5L15.3 27.2V30.4827C8.6037 29.6412 3.4 23.9224 3.4 17ZM27.761 25.2841C26.6509 24.3899 24.9679 23.8 23.8 23.8V22.1C23.8 21.1983 23.4418 20.3335 22.8042 19.6958C22.1665 19.0582 21.3017 18.7 20.4 18.7H13.6V13.6C14.5017 13.6 15.3665 13.2418 16.0042 12.6042C16.6418 11.9665 17 11.1017 17 10.2V8.5H18.7C19.6017 8.5 20.4665 8.14179 21.1042 7.50416C21.7418 6.86654 22.1 6.00174 22.1 5.1V4.4013C27.0776 6.4226 30.6 11.305 30.6 17C30.5997 20 29.6009 22.9145 27.761 25.2841Z" fill="white"/>
</svg>
